<mxfile host="Electron" modified="2024-03-24T22:59:12.148Z" agent="Mozilla/5.0 (Windows NT 10.0; Win64; x64) AppleWebKit/537.36 (KHTML, like Gecko) draw.io/21.6.8 Chrome/114.0.5735.289 Electron/25.5.0 Safari/537.36" etag="WTkQE_v4XQ0UMzMujGE3" version="21.6.8" type="device">
  <diagram name="Страница — 1" id="_NNJ8Qyopue1inblywc9">
    <mxGraphModel dx="430" dy="515" grid="1" gridSize="10" guides="1" tooltips="1" connect="1" arrows="1" fold="1" page="1" pageScale="1" pageWidth="827" pageHeight="1169" math="0" shadow="0">
      <root>
        <mxCell id="0" />
        <mxCell id="1" parent="0" />
        <mxCell id="Faq8xng280zrM9as-v0_-50" style="edgeStyle=orthogonalEdgeStyle;rounded=0;orthogonalLoop=1;jettySize=auto;html=1;entryX=0.481;entryY=0.009;entryDx=0;entryDy=0;entryPerimeter=0;" edge="1" parent="1" source="Faq8xng280zrM9as-v0_-45" target="Faq8xng280zrM9as-v0_-42">
          <mxGeometry relative="1" as="geometry" />
        </mxCell>
        <mxCell id="Faq8xng280zrM9as-v0_-45" value="" style="rounded=0;whiteSpace=wrap;html=1;" vertex="1" parent="1">
          <mxGeometry x="110" y="140" width="150" height="40" as="geometry" />
        </mxCell>
        <mxCell id="Faq8xng280zrM9as-v0_-48" style="edgeStyle=orthogonalEdgeStyle;rounded=0;orthogonalLoop=1;jettySize=auto;html=1;entryX=0.661;entryY=-0.01;entryDx=0;entryDy=0;entryPerimeter=0;" edge="1" parent="1" source="Faq8xng280zrM9as-v0_-43" target="Faq8xng280zrM9as-v0_-45">
          <mxGeometry relative="1" as="geometry" />
        </mxCell>
        <mxCell id="Faq8xng280zrM9as-v0_-52" style="edgeStyle=orthogonalEdgeStyle;rounded=0;orthogonalLoop=1;jettySize=auto;html=1;exitX=0.75;exitY=1;exitDx=0;exitDy=0;entryX=0.75;entryY=0;entryDx=0;entryDy=0;" edge="1" parent="1">
          <mxGeometry relative="1" as="geometry">
            <mxPoint x="270" y="120" as="sourcePoint" />
            <mxPoint x="278" y="210" as="targetPoint" />
            <Array as="points">
              <mxPoint x="278.25" y="120" />
              <mxPoint x="278.25" y="165" />
            </Array>
          </mxGeometry>
        </mxCell>
        <mxCell id="Faq8xng280zrM9as-v0_-43" value="" style="rounded=0;whiteSpace=wrap;html=1;" vertex="1" parent="1">
          <mxGeometry x="110" y="80" width="197" height="40" as="geometry" />
        </mxCell>
        <mxCell id="Faq8xng280zrM9as-v0_-51" style="edgeStyle=orthogonalEdgeStyle;rounded=0;orthogonalLoop=1;jettySize=auto;html=1;entryX=0.56;entryY=0;entryDx=0;entryDy=0;entryPerimeter=0;" edge="1" parent="1" source="Faq8xng280zrM9as-v0_-42" target="Faq8xng280zrM9as-v0_-39">
          <mxGeometry relative="1" as="geometry" />
        </mxCell>
        <mxCell id="Faq8xng280zrM9as-v0_-42" value="" style="rounded=0;whiteSpace=wrap;html=1;" vertex="1" parent="1">
          <mxGeometry x="40" y="210" width="301" height="35" as="geometry" />
        </mxCell>
        <mxCell id="Faq8xng280zrM9as-v0_-47" style="edgeStyle=orthogonalEdgeStyle;rounded=0;orthogonalLoop=1;jettySize=auto;html=1;exitX=0.75;exitY=1;exitDx=0;exitDy=0;entryX=0.134;entryY=0;entryDx=0;entryDy=0;entryPerimeter=0;" edge="1" parent="1" source="Faq8xng280zrM9as-v0_-36" target="Faq8xng280zrM9as-v0_-43">
          <mxGeometry relative="1" as="geometry" />
        </mxCell>
        <mxCell id="Faq8xng280zrM9as-v0_-49" style="edgeStyle=orthogonalEdgeStyle;rounded=0;orthogonalLoop=1;jettySize=auto;html=1;exitX=0.25;exitY=1;exitDx=0;exitDy=0;entryX=0.084;entryY=-0.023;entryDx=0;entryDy=0;entryPerimeter=0;" edge="1" parent="1" source="Faq8xng280zrM9as-v0_-36" target="Faq8xng280zrM9as-v0_-42">
          <mxGeometry relative="1" as="geometry" />
        </mxCell>
        <mxCell id="Faq8xng280zrM9as-v0_-36" value="" style="shape=parallelogram;perimeter=parallelogramPerimeter;whiteSpace=wrap;html=1;fixedSize=1;" vertex="1" parent="1">
          <mxGeometry x="30" y="20" width="140" height="30" as="geometry" />
        </mxCell>
        <mxCell id="Faq8xng280zrM9as-v0_-39" value="" style="shape=parallelogram;perimeter=parallelogramPerimeter;whiteSpace=wrap;html=1;fixedSize=1;" vertex="1" parent="1">
          <mxGeometry x="140" y="280" width="90" height="30" as="geometry" />
        </mxCell>
        <mxCell id="Faq8xng280zrM9as-v0_-38" value="" style="shape=image;verticalLabelPosition=bottom;labelBackgroundColor=default;verticalAlign=top;aspect=fixed;imageAspect=0;image=data:image/png,iVBORw0KGgoAAAANSUhEUgAAADUAAAAjCAYAAAA0aUL2AAAAAXNSR0IArs4c6QAAAARnQU1BAACxjwv8YQUAAAAJcEhZcwAADsMAAA7DAcdvqGQAAAIuSURBVFhH7ZlP7sFAFMdffxcQHIGlxMafxNKGcAAiFrYcwIKFtRs4gIQD4AKsxIKIJSdgwwH66/dlpqn8tDrV/pJKP8nkPR3em+/M63Skmm5AX8aPsF9FJCosRKLCQiQqLESiwkIkKiwoibrdbjQcDknTNEokEnQ4HEQP0eVyoV6vx31ozWZT9HhnPp9TtVo1Y6Kl02mOjT5bcKB1Sy6Xw+HXbJVKha8vl0s9Ho8/9U0mE+7zSrfb5Tiw1+uVr63Xa3MMsHa4FoXgCHQ+n/XxeMyBIWq/3+upVMoUIQeDAXgFv7UbuOxDHjtci4IAOWOz2cxMihXCZz+xTtorkNOpEpTKTyKTosH3Gxkfg0dlqOJJFGYQSVF2QQAhctKQAyWugidRclP4dDNwQpa4bFg9Wf7vUBaFWZOJVGdQFcSXux0afDfClEVhdZAAq/VfWO9hu83DirKoRqPhOrifWIW92zyUj0m73Y5tuVxm6yebzYZPDa8olUrCI3o8HsJ7jZIoHIWMWWI/k8mwdYMcLBp8O06nE9vVasXWyv1+Z2uUPWWzWfbtUBK13W6FR1QsFoXnH/Is2W63n4RhIkajEfvT6ZStE0qijscjW+PZQclkkn0/abVaNBgMqFAoUL1eN1e30+lQPp8nYzekWq0mvu2AuLcCBQdepEJz+6z5BOWNwguLxYKtsYMFssJ/EOICw82p2m8Cf0GAP5WxWIz6/b64EjzRW4+wEIkKC18oiugX1juaAeLS2vYAAAAASUVORK5CYII=;" vertex="1" parent="1">
          <mxGeometry x="169.86" y="285" width="30.29" height="20" as="geometry" />
        </mxCell>
        <mxCell id="Faq8xng280zrM9as-v0_-40" value="" style="shape=image;verticalLabelPosition=bottom;labelBackgroundColor=default;verticalAlign=top;aspect=fixed;imageAspect=0;image=data:image/png,iVBORw0KGgoAAAANSUhEUgAAAdEAAAAfCAYAAAC4VvfrAAAAAXNSR0IArs4c6QAAAARnQU1BAACxjwv8YQUAAAAJcEhZcwAADsMAAA7DAcdvqGQAAAzHSURBVHhe7Z1JixU/F8ar3w+gqDtFENuNKAjihBPowgl3LlpRxJ0D4k6Fdikqiii4UHvhxoXDQgRBcQAFJ5xpUdGFuhJXrYJfoN/7pOtpzz+dSiW5XVW5ffODmPStIamTM6SqkrJnuEWWSCQSkXLt2rVs37592a1bt7KVK1fmvyYScfC/PE8kEomouHPnTjZnzpxs27Zt2Z8/f/JfE4m4SEFU8OvXr2xgYCBbvHixMuAmaKIN79+/V87q1KlTqv5EM6R+GAHXvmHDhuzcuXMq9fb25lsS40kM/i5WvGwRj3MTw8O3b98enjJlikonT54c/vbtW76lPppqw9DQ0PDFixdH60Y5UT+pH/4BWyDr16/HK6fhJ0+e5L8k2iUGfxczPraYgmiL/v5+ZaQwVgivCWJoA+rt6+tT7di7d2/+a6JuYukHOFe0gWnRokX5lnpJQXRYOXLZF+0MsGLwNZ2Ciy12fRCFMlKhyqACy2QSrGk/2/l92lAHuCa0B8aWaI4Y+gGBizrcVEBPQXQEBj+kwcHB/Fc/YvM1TYC78N7eXjVIdMVmi10dRKGIEAxGeS4jMjzygPCpyEWdgHNh1M790AFF5/dtQx2gHbzO9AitOWLpB+rx1atX81/qJQXRESB/9kUIMfqaOoH/pi756pPNFrs6iFKgPiMSHgOB2pCdZVPYkDbUAQ227DoT1dJ0P9DxIvm8N4Oj4XEuyQZtpNuDqHwMG0KsvqZq4H/lXTyTrz4V2WLXBlFp5D6jMr6bKHu0xTtR23uk0DbUBa9VTvJI1E+T/UDHgTb4kILo+EOfEhIEY/c1VQH9he4i8KEM2VEOIfpkssWuXeJy5coVlff19WXTpk1T5TK+f/8+ul5t9erVKjeBKdFv3rxR5XXr1qncREgb6mTr1q0qv3z5ssoTzdBkPzx+/FjlNj02gY8itPyLc0rYkT5l+fLlKvchdl9TFR8+fMhOnDiRff36VdlRiOwkJlv0CqIIIvhyCNbP9PT0jCas6Tpy5Ija3incv39f5WvWrFG5C1++fMlLWbZkyZK8NJaXL1/mpSxbsWJFXhqLTxtgROhAyBvruuTapadPn6rfsA19gy+8SLDWiX2G/bAGygUOFNjOmIE8oIO4xqlTp46RAcB2bMM+Veuq3h4pc9oRtiHRMItosh+KdFT3AdCrWKnbdnBO9C91DQk+0mUtJnVDP/bMmTP5HiMDFF98fA3WjrJ+KQ/qNLdBplKWMXLs2LFs9+7d+V/tY7TF1ijQCbwbwa0sEm+D8VhA3h53ymM/vNthm31u6flcvez9lHz+XvToxKcNOAcfIzDxkQ4ft+kJ58dxfBQmk+v7NfkICP0fM5w9xwR5SfTtVSMnliHxPRZsRO/LsuUKTfUD9If16joqt+F6qmqXlBd0vsieiqjbdqhnWBbBd8iQDY7D76izCLYHukNfinZwiQW3+eLja6Q/ZwJoh67TSNTrTkHaUpksTJhs0dmbUKFMgZLbqDSusDHtJBqED1IQPm2mEo33+1BbG6i8qFMaFHIYHRwEDZPT15FQxjE4lueXxugK9495gERHC6U2GQkdA+SEVLXhS7mzbtRJZ8qgSYfLdtrgNdXZD6iL9epIh19FAKVPKUou1G077E/sq0NZok60RUfKU98uddq0xKIMV19DmWB/9CmPoRxxXTheyhKpiv6vCikLF7szweNpi87e1FYxlA7C94XnbCeFBFEqLJIPsl6XBKMqwrUNUFrp9HmXi3PDIesKzHNim26QNqdYBPcPkXNdoG10hgC6yDbTaOT2qkF/Ue7sZ/SFdNq+NNEP1DV90AGdw7XI64yROm2H/Qy5mGSCtvB43YfKbaaAJB0/HbcPbBuSDciH58c18Bj8rvsy2aY6batdZLv1fnCFx9MWnb0pD4RAOx1cPK/HFSl8KH0R0thsyhXSBgCngGNgrCaD4jmxXW8nR9twEq7wfHU673bhKBk55NBO2+HUIK8ieZch+7mddoScA46Q+hJSt+lY6DRkYRsgxkqVtoPfsd0mF54f55LgGPxuuoMFrr6nCKmDrrBOyAIDCh0ZZNvR67qpIog6TyxqdbTKjx8/rl4udxvPnz9XectYstmzZ6uyiY8fP+Yl++SjUO7du6dynHvTpk2qTDChgWBGmt5OTorwnWnpCyZCcFJEaMI5QuHkievXr6trPXTokPo7BMi75bjUrGx8DN2Xhw8fqhx60047Qvj8+fOovhw+fFjlPvBYzGjEhBdMJMH/qHL+/HmVOo2qbAcThqAjYPPmzSrXkeefOXNmXhqZrHPhwgVV3rlzp8p1XH3PePLp0yeVQ+/Pnj2rykVMnjw5L9nBJC2Trfum2HAOokePHs1aIxJVRiDFTDWpGJ2Ea6dL6AwpgyK4X2sEZ1X4kDbImYEHDhzIS/+g4qNu04w0ziizLc+ZCMybNy8vZdn+/fvzUhituxflvCBTk8zLePXqlcoPHjyo8jqZO3euaj9ojZpV7oq07VWrVikZYFACqhgcVk2VtvPs2bO8lI0JzuTv3795KcsmTZqUl7LswYMHeSnLli5dmpf+C31K6OA3xNc8evRI5dAf02xgDNCItLduxDmIYm3R69evR40Ra5ZgXKalBLEjO911qQNHsQsXLlR5EXSaZQof0oYXL16oHIZuMlYqvqlu1MHRcogTnD9/fl4q5+7du3hu1FbCOUJB8CA/fvzIS2EsWLBArTH7/ft3oYMsAo6b64qXLVum8nbx6QfYLPvC9y6YQQXBE8cPDQ0pvQPS8XcKVdrO27dvVc4BiwkZaKV+Yh0jgJxN6zdxp0rfEzr4DfE1HDTs2rVL5TrSruT12IAOShsPTbFAW/T+2AIEMTg4OHpHhsc7oXekplt134RHBL5Mnz49L2XZz58/81IxchRrW6wrnWbZeizfNgAaelEQ5GJsU90M7j6PhGS/zpgxIy/Fz/bt2/PSv48FNIF03AjGoTTRD9Q12jkcPAPMzZs3Vd5JVGk73G6zKwYlBFoZLBmAsRbVxKVLl/KSe7DS8fU1CLT0Y0V10q76uuzjDSZb9A6iAA4BI1yOTPk1jE4Bys62832DDTpDYFvo7POIw7cNgIa4du1alUvkaNlUd8iXZzjabDcI1AkWquPOsb+/X/1NmTVBmeN2pYl+oNxkUGEZd0axL7LXqdJ2GHBmzZqlch2cn0G66M7OBAblfJfdTt/7+hoOCoCpTvQ9n0AWvcedqJhssTSIYoKH6W4Pow86BzzqCsF0q+6bQidr8Csx7969U7kNfVReBB/NAJevivi0QY4OTXfDUvFNddOJ0NBhCGVfHAn95FtTwLAxSePGjRvZxo0b1W9wjpAdgFOizOuAjtPkuH2oux+krsmgIh9J86tc0B8MXCjjGKnadsr8wunTp1WOO9ki/cPAT4Jzb9myZXRCpxyIQd4uXz+S+Pga6lvRdeHuGPLEXbXvK45Ox2iLrUBkpRVxjVOcAX7HKfQp252AnOpsWtclgQywX0tp8l/MtIxE7YfcBZ82yLVepn25Bq6or3gs9sPx2K9smQKvO2RpR11A1mgf5cNlRbhGXjOmovOa65qO3wreo/W3K7+6+0Hqmg7bguUYkCl0qMwumqZq24FOFR0vbdy0BpTHIlF3cQx1VT836kUfmK7Dho+vQV3Yz+THcA3YhjZAxzsN2BDlEBK3TLZoDaLSEaDzKDR0gk1xOgUYP64B11KEVHIoVZHiyP2QXBXMpQ0A8sd+RfKm4sPQTTDAM2F/mzHR8bgOCJoA7ZfXJB0boGyZ6tTVMsftShP9YNM1bmNCu9q5vjqo2nZQ5jngmLkNfQeni4QgZgJ+go5ZJuqy1CMk7GsKxi64+Bq0XdbHQIPfeT2QR2gbmgLtR+BjPyHhWvCbq68uskVrEEXFECJGnboioUM68Q5UIkdVVHyJ7jCYdPQAyuSiaGVtIOx8GpcEx7FOdLQJKAvq4DlsdWEb+7vI+GOAo2tcl8kxQLa8Duir7ZrHG97d6AbnQ1P9UKZrdMZ1yzSUOmwHv2Gb9JOoF3pZJiOcn8ch19sh5d1O8HLxNfKOFW2XQcf1emJCXk9ZstkYrrnIFksf5050GAChoE0RQxskGDShPUUj80Q9pH5IjDdlviY2XxQLNlvs+iAKMIKk4jQ1yoqhDaiXymIatSfqIfVDokpsvga/YVsauI3gYospiObwkQ0fDTYRyJpqA+rBo3nW3emP6TuV1A+JuijyNQgWSNjezfjYYgqiAgoOz/6bUqIm2sB3h00NHhIjpH5I1Inua/jOFKnOd/Ax4mOLPfinJbREIpFIdDEDAwPZnj17VLkVVLtuDWgoQV8sSiQSicTEgh+VATt27Aj6pGo3ku5EE4lEIpEIIsv+D+54tHJD72BcAAAAAElFTkSuQmCC;" vertex="1" parent="1">
          <mxGeometry x="42" y="217.60000000000002" width="297" height="19.8" as="geometry" />
        </mxCell>
        <mxCell id="Faq8xng280zrM9as-v0_-41" value="" style="shape=image;verticalLabelPosition=bottom;labelBackgroundColor=default;verticalAlign=top;aspect=fixed;imageAspect=0;image=data:image/png,iVBORw0KGgoAAAANSUhEUgAAATkAAAAvCAYAAACYGb3DAAAAAXNSR0IArs4c6QAAAARnQU1BAACxjwv8YQUAAAAJcEhZcwAADsMAAA7DAcdvqGQAAAvQSURBVHhe7Z1Ji9VMG4bT3w9QHFYqLhxAUVGccQIFB1wIgrMgggttcelE604cFwoutBUEEXFAF27aaaHghBPSouLCYSHqqp1/gO+5qvP0V2/eDFWV06dzkrqgrOrkJKk8VXXXU5VKbPlbI/B4PJ6S8r8w9ng8nlLiRc7j8ZQaL3Iej6fUeJHzeDylxoucx+MpNV7kPB5PqfEi5/F4Sk1hRe7jx4/Bnj17glGjRoVbPODtUh2mTZsWbN26VZV51cllCxYDF4329va/AwYMUOHixYt/u7q6wj3VxtulWlDGlDXN9PDhw+HWapLHFoUTudbWVnUjU6dO9Y1Yw9ulmlDWlDllTx2oMq62KJTI4an4hvxfvF2qjd64q+7RudiiMCLX2dmpMk4g7emm2exCJUSUqYgdHR3hVg9lN3LkSNUwXTqqDx8+9AzX7t+/H26tJra2KIzILV68WGW66j1VlGayC6JG5SOQXyqjpxsRf7EPaVuwKXWBDqTq2Ngil8iholxIDy69lH4el+PLiotd5PcSGuVNtbW1qeshyr4Mk8E2q1evVraynWPjWPFgmIivMja2yO3J0VvjhnMxYhek0InT4Gb4nR44Jm4YR6MTIxBIsy0NRIWKJ/cjx3EN20olDwpMQlJlN7WLjt6ICI3wpmTOEIGrKnQmMhw1QepHVp2MIseVxdbUV7knW0xtUZfhqgypkhprGtwkxxJMhESfo8oSVXFpCVnDA/FEEDWOQ/AIuljiGpNfU6QQovdlki9bu+jI+V07HRukPLCRjW3KAp2I1H8CdcYEbCWdqekxgJjKtZp9OkCG79yLi2ib2qIuIicZtW2MwDGSUdNGIr/PMoxuhLSKJGJEpYvLAw3ZRehEbKLX1kUuKV8udhHEk3PpdGyRBs49VQnKRDpGPdgIlpSxbWck13KZ1ysC2EgEXoKLyIGJLXK/8cAK5B8/fqj02LFjVWzDvXv3VFwTj2DQoEEqXS/69esXppK5dOlScPLkSZU+e/ZsbB4mTpwYnDhxQqWfP38enDlzRqV7kzx2IY9AvnuTBw8eBLdu3VLpTZs2qbgKUGdGjx4dXL58OagJVVAT+HCPHWvWrAlqnWdQ80KC69evh1uzqQmCiu/evaviZgGt4J7nzp0bLFq0KKiJXVATu3CvGya2yC1yT58+VTGF5dKobt++reK8N+vK3r17VYyYzJkzR6XjkAoJhw4dCr59+6bSJqSdNwlXu1CRaDQwc+ZMFfcWFy5cUHHNc6x7B1VkXr16FRw8eDB4//69qhezZs0K99jD8XDu3DkVmzBlyhQVSx1pJn7+/KnqJ04D7SLv64kmtsgtcuJxoMw6vGfW0tLyrxAnDNIgJ0+erOJG8vLly57rr1y5UsVpSIXEc33y5IlKp/HixYseYbTF1S5JnQ7eR7Q8bLyHOKRizZ8/X8VpnDp1Khg4cKC6LnkRqBO8iyv7sLFNB9IX7N+/P9i8eXP4Vz7mzZunYhvB6t+/v4qph830XuuIESOCmzdvqrhemNgit8g9e/ZMxdHGiFLjHQm49dHenuGOMHz48DDVOGSoBSa9sS4ar1+/DlPJIFTTp08P/zInj13wMiB6XcSjra0t/CsIWltbg6VLl4Z/2aN7jOPGjVNxEkeOHAm2bNnSM62xdu1aFSNmS5YsCQ4cONCzjyHg+vXrVboKDBs2TMXcP52uCXpd/fr1a5iqJia2yCVyVFKZ/4mKBI2AfXgUHR0dPV5QElLYjQRPywa9Md+5cydMJcP9izvtiq1dxCNYsGCBinUQEGAOSeYYXdEr1JAhQ8LUf8FrY3jP/EtnZ2e49f8Cx3Acsezq6lLDXqDzMW3wzY4+lfHly5cwZc7nz5/DlDnYXffoXQLnKBpJtsglcvqQTS8sKjAVlgrMhGCSx+BSQDo0hrgCkMAEZxrMDwhpDdUF8cZmz56tYhtc7ZLW6TB98P37d+VR79y5M9zqjp7HtOEHnuX58+dV/dAF++jRo+rzOYggx+Plb9u2LdwbBG/fvg1T1cFkdBDl06dPYcqTZItcIieFIk84gB54xowZKo0Ipj2MyFtADIfxEJJCe3t7+Mts6jlPAI8ePVLxmDFjVGyDq110YZBORzwmxIQOJ8ujNsU0j8xfSScn+cO7x+OMepP603nfeHsP5sX+di8fcw6co1nIJXIyZGNoRGNi7mXSpEnqIQRzdb39xI3z05iTQtZckU69h0dXrlxRnmy9xTMNEVbpdBA2ljpQNu/evev1JSVZvHnzRsXMPx07dkylk5AJ5Syoc3FevG3wlJdcIicT97t27QoGDx6sYpAnRs3Enz9/wpQZaeIl85Eyx9QopNORYTwT/AgKw8J6dzimIqQja5kQYTqhKLonatNBeTxpOIuc7vkwcYwLKx7EtWvXVJxFXzxR1dEfCvz+/TtMJaP/Js0runr1qopXrVqlYltc7SLLR5h3ozxkkaq+ZKNe6CJkuoxBHops3LhRxVH0eT7TheXML+rDKNdQBMaPHx+mPPXEWeQeP36sYuZXxKtZvny5iuUpXhZ98URVZ8KECWEqCB4+fBimktF/k7bQ9vTp02qo6jo8dLELnY4swxCBkE6H7fqylHqgP6gxWcaAEEbzF0XWXFZpcbFeLkOHDg1T5rh0iGV9uppkC2eRk6GHvghYb/i2C03zPml1YeHChWHKTJjlN2kChteEZ7tjx45wSz5M7aJ3OpI3Yv6GGzduqLhe0LHJuWUuMA3xMiHOdswbise5YcMGFVcBKV+93Gzoa0ehSCTZwlnkZKmCvghYb1S618OK9jhPQp+X6YunaXgLLIoFhCltWEf+ZfHr8ePHVRwHr4lhgxUrVoRb7HGxi0wfRBcBSyekr6jnPnkDIS/ypNZkvaH+Lm4cvA+Mp4f3mWeRcrOR9MZQGnqn4rL0qUxPV01s4SRy+mr36HosKSy8HnpnGhMvwCcNUfCKwHZhrgnyNC+Nffv29eSBtWRxT1m532XLlql02psCPOnDLrt378493LK1S9IiYHnlik6Je0Osuc+4iX0ZinAfJqxbt07FUtZpyJsxMmTVIV88tKJzyLtIuS/Q52pN6pyOi/f669cvFWOvRj697w2k3uievg1GtqipsjXyiRhC9DNA+j4JcR+1FOQzR7UePtySjv49OULaZ4hWax+PTPs4Iefk+vyuZiz12/v3u78nxyeE2GZyDn5TE6dwSzKcU/LFNeKwsUtNWHvOx+eldPR9EpI+SyP7yZ8pNc8r8xjKSM5NkOuznfqCfbFbWj0pIuQfe0vdIXAvbMPuWUhbMakzOmJz6nezQlnr7YBAnU9qD0mY2MJJ5OQ7WkmFo+/PqrhpghklTkCpVGyPwrWjv80SDM6DsUTU5BiMn1Zp9Wu4hmjh2thF/25eXD45F/eUZCtBzmEjciLunDspn9ybfm5dFEizLesei4R+P1khqdFyv1JHbRu2nLsZvycnopQV+J0J8vs0WziJXD2hsCWjaQ2wyEj+abAmPThw3+KtEaIVvdF20a8X9QazkB45qWJm7a8iMspIGx3EkdWhVQlTW/S5yIEUeLO632Jo2x4Z0nrzRtpFPEdXIRLB5ngEU4dt7LNt0GUE20i5YjNbdDtXHVNbFELkaOBklhBtIM0A+U4aumchQ/s4kWuUXTg3w0080TzXoWeVYbE+BJV7sPUQywS2YEgl9nEZako5YctmHfXUCxtbFELkQHp7GkezQb5demUQIYsTOWiEXRAfvIs8AidIY0YwOa/M2aXdYxXADnSEuvjbIsN+bFt1bGxRGJHTG0PWw4qiQZ5dRYi5BI5PEoBmtgsgeJL/KntyeaGeiOdS5c4CbG1RGJEDaRB5h01lo5ntIvNPBCpmb3qkZYUyp+yxYdXt52KLQokcyGSiF7p/4+1STfRG7TolUhZcbVE4kQM8F3p9ApOKvlF34+1SLShjytrGaykreWzRwj+1AwsHr1LxPiOvDPFfv3m68XapDnwHkLB9+/amf30rL3lsUViR83g8nnrg/BUSj8fjaQa8yHk8nlLjRc7j8ZSYIPgH1d6rnI6JvQgAAAAASUVORK5CYII=;" vertex="1" parent="1">
          <mxGeometry x="114" y="85.81" width="189" height="28.38" as="geometry" />
        </mxCell>
        <mxCell id="Faq8xng280zrM9as-v0_-44" value="" style="shape=image;verticalLabelPosition=bottom;labelBackgroundColor=default;verticalAlign=top;aspect=fixed;imageAspect=0;image=data:image/png,iVBORw0KGgoAAAANSUhEUgAAAMQAAAArCAYAAAAntCc8AAAAAXNSR0IArs4c6QAAAARnQU1BAACxjwv8YQUAAAAJcEhZcwAADsMAAA7DAcdvqGQAAAg/SURBVHhe7Z3JixS/F8Azvz9AUG/iQWwPiorgjht4cMGToKB48iDIKHgUUS+C4HLxaAsexIMbgqdxBQU33FFEvDie1JMi4h/w/dXnkde+rkmqq6erp2e684GQdKU6lby8l1Re0jND/2W4RCIh/M/HiUQiIxlEImFIBpFIGJJBJBKGZBAVM2/ePDc0NNQIialFMoiK+fLlixseHpb08uXLJU5MHZJBdIHp06dLvHnzZokTU4dkEF3g7du3Ei9evFjixNQhGUQXuHfvnsQrV66UGOy6gnD79m2fk5hMJIOomKdPn0rMa9PcuXMlDSMjIz7l3K5du9yqVav8p8Hm7Nmzk2qwSAZRMc+fP5c4v3549uyZGEm9XnfXrl1zM2fO9DmDzeHDh93o6Kir1Wr+inPz58/3qYknGUTFvHv3TuKlS5dKDIyCrCvevHnj9u/f768mFGZS3NWAYdiZdaJJBlEx9+/fl3jNmjXy+rR161b3588fd/fu3Z529GTn1atXEvfaM5cMokI+fPjgfv/+Len169dLYIGt1xJhvn792pDRhg0bJO4VySAq5MWLFxKzIcep+qtXr8pnnTUSYXR2gAULFvhUb0gGUSHMEKDT/qZNmyRm0ah5ibE8fvxYYpwOS5YskXSviBrEhQsXGudyeA+2MMUdOHDAzZgxQ/KJ+4lfv365Y8eOuRUrVjRcgciCNuMSRB66CLToTLB27VqJ8SThYoUbN25IDJTfLsh89+7dDXnnXZN4rrS/yKf/LBikfp9AG8oaKc/Oy4NnIA/yysB6ivu1jgTK45rKbbzrh3Z0FRkUtptfzOUZHh7mV3RNIZv+JY84s+SmvFqtJnn9gLaPQPrnz59y/cmTJ03t3rJli1xXslmgkaffAb6nMuJ6vV5vW17v37+PypwyqYvN08CzIdRnhHwbQpw5c0bu5XkjIyNyTdvBdcqlfkUcPXp0TBmgZWjgWe1SpKs8K9Ru7YsQYwyCB1AIwuRLWgiVVcHqA7PRT/LKCDaPKkpVoQpoF2XFOtkKP995CJ/r2frBX/mHKgTlUkasM0KoMej3tCwCIHueqfVVBSZwr8qZ63wfw0UhbBkxtL0xBVJDJD+GlkEdQ2VwXeuiBlwWyo7pKvLQNHkEO3CoDudpkoh+ySqDFqANs3lW2O0y2QxCBUiwo5jFKlu7nTdeeA6KrWgdUATSeUWzioGicl++87UvCTHs6B1rq5WH1QtFB5hYPlglbQfaiVxCukq9Qu22OocMQhTWwgqXgJD6Fe2Y0Aiv6IxIsEo4kagSouyhkTvfZ9yfRw0CpQlBGeRxD3KJYQ0ibzS2jJjyAW1o9ZyyaF0oM9RuK5vY8woNwlpUFRWerNjZITaVgk7vRUbTbdRwCaGR2/ZZrJ7aDgw8hJ0diuRRZBC2jNjsYBU0pMDtUKbdoPfE9LnQ7arncuD48eM+1X9YD5C6SvPgGeLoBeAd6RV6kjbrdLdu3TpJWz59+uRTzp04ccKn/mHbsXHjRonz3Lp1y6fi8gB24GNcvHhR4my0jrpSP3/+7FPOLVq0yKfGh233uXPnfKoZ611atmyZTzVTaBAPHz6UmEaFhN8vqNuPdsYO3T148MCnerebqidpYd++fT7VzKNHjyTOXlfctm3bJG15+fKlTzm3evVqn2rGGl3RIUT93QfYDTVrdEWu1Dt37viU6/j0r7a7SFe/f//uU/HfqhQahAqmG+dL6Fz1R1cROkE7L7S3oFy6dMmnerebamfsmDK38ulz6hYwmNDIbUdRlKuImOHYkX/OnDk+NZbz589L3MrwylDGALXtYH+rYokahB2Ner172E3KbCwhC+186JU89CRtTJlpi54JsqdtLa0M5u/fvz4VLwPsxmBstiqCE8Ba104HXNrNaQAomr2vX78ucbZ+iB60jBqEfSeLjUadwLSWrWEqC+PFKkAIpv+9e/eKEgLC7BWtlNmeCeK0bR4Up9X6oSyXL1+WGLns3LlT0mVhFjp9+rT/1PlPbW27Z8+e7VPNMKip0RSth6MGoe9k0M8zhG1b/kgFnzkKwPELfX2ILca6DUrUavTXM0EQeo/+8eOHTzm3cOFCibWN+qo0a9YsiYvgXh1tjxw5Uvi6k19487wdO3a4U6dO+Sv/lDhfl7J8/PjRp+KcPHlSYga0wvVwNroGySy/0D3VT+Cmo60EdTPiKuQ6AfL5E02ZjTJth9Y5j3WTsvnIrrW2EReoQp/HyuE+fU5MN6w7FT1StyvPzAaWph10QlFdyqD1IYRko+0uU3bQIKxfvlP/8FRAj13kgwrQdl7Mp95t7KZgCKuEsY0w268aQkrCfTog0v+ajxxU+XhGkXLZIyY2aN1sfTWUUdg8+XKQE8YFxCo3jLdM2UHpMgrqA2LHGPoN2szoRZuJ7UCgIwxK0iu0bihNCGvURbOYKiptKVJqlIl8fS6BNNdiM1QenqWGRb3zukQ9yW9VlyLsYMXzdHbTwOd2ZvXoK9MgQCcgxFboqBjb2U30Dh2sCFVQuA/Rz3BGHj+43VwKYT0z27dvlzgxedDN42wmkLhTBtIg8GLoptChQ4ckjnHz5k2Js2m98BhDojeoy7Uq799AGoTde5g2bZpPjQU3oPrLW7kXExOPdUVX9WdDB9IgrK/927dvPjWWgwcPisCzNYT8Qa3E5EL/qAPENuTaZSANgm37er0uadYS/B6Z2UDhWAInWtl8YlOOv6mUmHzYDTx7sqITBvq/kLKdf+XKFff69evGwhlqtZocj9izZ09fn/Kd6nAYc9QfxwAW1p0OXunf8iYShoF1uyYSIZJBJBKGZBCJRAPn/g9YNEoAXbHJ0wAAAABJRU5ErkJggg==;" vertex="1" parent="1">
          <mxGeometry x="121.19" y="146" width="127.63" height="28" as="geometry" />
        </mxCell>
        <mxCell id="Faq8xng280zrM9as-v0_-46" value="" style="shape=image;verticalLabelPosition=bottom;labelBackgroundColor=default;verticalAlign=top;aspect=fixed;imageAspect=0;image=data:image/png,iVBORw0KGgoAAAANSUhEUgAAAKUAAAAmCAYAAAClD1usAAAAAXNSR0IArs4c6QAAAARnQU1BAACxjwv8YQUAAAAJcEhZcwAADsMAAA7DAcdvqGQAAAd0SURBVHhe7Zw5b1Q7FMed9wFAhJKORQqiQIKAEKKBIqGiZKsoaCDfIEBHwUDP0tFBpEipQCwSSGxilUBCooEU1Ox8gLz7Mz7zzlzsO/Ydz7x5PP+kK3tyFx/7/L3c46tMrFSYQmGM+MulhcLYUERZGDuKKAtjRxFlRiYnJ83ExET34HchnSLKjHz58sV0Oh33y5iZmRmXK6RQRJmZ3bt3u5wxe/fudblCCkWUmfnx44fLGbNlyxaXK6RQRJmZx48fu5wxe/bscblCCkWUmXn16pVNZ2dnbVpIp4gyM7dv37bpvn37bFpIJ1mUjx49Mjt27LAhj40bN5rl5WV3xpjPnz+b8+fPd0MjnOd6zc2bN7v3c5w8edLelwNsOXz4cDccQ1ma69ev99iOrTnRddUvPHDq1KluneXA1hy8efPG7N+/v1uvepuDvoZjWFy5cqWnHPxAPWl72oDf2NIIe9+xXLt2jX3ynuPEiRP23OvXr1c2bNjw2/k1a9asfPr0yV4zPz//23mOTqdjzw8C5VOWfi72AOUfOnSo55wcly9fttfkgHrIc6XOmmpK756fnp5e+fDhgzvTHl+9+a2pX4MdudH+px2kbqTUVcrm6Ee0KEWQ4kQpiAriACqNQDGiLoIbN25YQ7mG58DDhw+75wdtJGl0yqdsLX7AFuylTMAeOS/CzYHUmbLqSBtxXuzMAWVRLs/TnYI6Av6gXK7jGlLaJyda9OJfjR7MYnwdLUrEqAuUXk+DkJcRU9COpyEwGuM10rMGFSVi0w0tzqFM8uIQjdjPkWPEAnFM3ekiBs77nNYWGYWkbvyWOlFv4Lyv/rngueLHkNj1ACR2NZE0fWvEqRiEMOtoUXLIKKWRyvjuHwQRJc9HCD6H6NHUZ1sqdDh5noxSwLOxAWHUO+UwoBxswD/UkbJzdTof0tYcIeEzoPnaJkRrUUohIadrY309iHvkfM51HehRMNQI2r4cotRTFCJAgMwe/K7PIsNEdzaOHHVrAv/3q6O2KSRcTStRUlEpxCc4kPVVyBA9kuYeQaShmpYF/exLRQToO3JO2f3QnSN3Z6+jfdg0AsrozcwVQ6s45ZMnT1zOmIMHD7pcL3fu3LFp5Xyzdu1am9fIzkclILN161abzwHhhq9fv9r8sWPHbOqjGs1sWjWU175UXrx4YVPqW7WrqYRu6wYPHjyw6SjYvHmzyw0fvXs1NTXlcr0Qpnv58qXNx36g0kqU9+7ds2lIUFoYoY8SRLS5v6R59+6dyxmzc+dOl+uFuGhqQzWhn7dt2zabInR5NjG6UaHr3zceOCCyewXr1693uV4WFxddzkQPPq1E+fz5c5uGHKobxvdRgnZi7i9pZFRiBAw11N27d13OmKNHj7pce549e+Zy/q+E6KDDFghQxpEjR0w1Xdrf0vGHxfv3713OD34+d+6c+xX/gUqyKGNGQT1d+T5K0KLYtWuXy+VBHMHORoirV6/atFpzZvlo4u3bty7XO33quj19+tTlhgMCwB/V2tYcP37c/o0lit5xyw3fjzYxNzfncr+IbetkUerGDSlfhIHTfXz8+NHl/hnSETvbUzSuIFuCk5FfcHOvrBVDsAUn+9OnT5+2aR29JRgzwslypr4+pW6yrlxaWrIpYAPbq3WwX8pN2YLkPtqO8i9evNjTGfQAQJn1rVfgb1Iu24Sx6OWR9htQFr6gk4CM3jEki/L+/fsu51e+Fsb27dttWkecCFyPk+jlTLfaqZKXkbkfehr1QVkHDhyw+eotNdhzV69e7XLG/Pz50+XCiMh9yxn5G9cgcOqKDSJWja77t2/fXM4P+/Z0WhEkbb6wsGDP6c5w4cIFew3r2kuXLpl169bZv2tWrVrlcsZ8//7d5fqj/XvmzBmbMjIjSMrDHll3Yms0v17C46kqa1/vQ+EWHSYIhUJ0MFUOX5xLxxtjqMfodJgCW7Cdo1+IJiWGqcNjvhCMDtHI0RTTk2uawlmg24Y61cNqvhBVqN66DtQ9lqojdPWgD22P/C0lPJUkSoyQQkLxSS0MrvdBXFAaldhVqCFS41vyTO7DKdwntpDnbyGbNDF1EHQHCwlYnoezmpxOu8izmoQLIgbq7Ivz1tu4qSPGDCQhKFv8hE3YLXFfLfaUWHSr4PmokArF9t7U60OIM0lHiXZiSODDgPaiTEQlgmoC4dI2/a7VnTGFsRWlTHv0wpiGyuVQmQ1oyJTenQOZcvuNkrmRGSVmlBS/xAhYnptan7EUJWKg0rGCBD2Nxt5Th/so898QpDh71IKUjhAjSKBtuD60fBMGGSRaBc9HQdXLzK1bt3reSJuQqAD3xd4TgmfF7j7kgrfeSiA2pDNKiDVWgowOQUkkREcofJw9e9am1TSfHgt24vzPIz141OvA/xsxU7LMWvgk5sWyzh8hSlkHctBobafvQn+YimUA4AVJi44lj3x9xTKo7RJobKfvFGQvHqpGMps2bfLuXBQGh6mY7xaqNaXdBGG5JLtBsu3McoCvptougco/TS2MHX/ESFn4syiiLIwdRZSFsaOIsjBmGPM35uTOGrQVvewAAAAASUVORK5CYII=;" vertex="1" parent="1">
          <mxGeometry x="47.9" y="23" width="104.21" height="24" as="geometry" />
        </mxCell>
      </root>
    </mxGraphModel>
  </diagram>
</mxfile>
